<?xml version="1.0" encoding="utf-8"?><svg viewBox="0 0 502.66 502.66" xmlns="http://www.w3.org/2000/svg" xmlns:xlink="http://www.w3.org/1999/xlink"><style>:root>svg{display:none}:root>svg:target{display:block}</style><svg viewBox="0 0 32 32" id="arrow" xmlns="http://www.w3.org/2000/svg"><g data-name="Layer 2"><path d="M1 16a15 15 0 1115 15A15 15 0 011 16zm2 0A13 13 0 1016 3 13 13 0 003 16z"/><path d="M10.41 19.87L16 14.29l5.59 5.58a1 1 0 001.41 0 1 1 0 000-1.41l-6.36-6.36a.91.91 0 00-1.28 0L9 18.46a1 1 0 000 1.41 1 1 0 001.41 0z"/></g></svg><svg viewBox="0 0 502.664 502.664" id="icon" xmlns="http://www.w3.org/2000/svg"><path d="M153.821 358.226L0 274.337v-46.463l153.821-83.414v54.574L46.636 250.523l107.185 53.431v54.272zm26.273 29.358L282.103 115.08h32.227L212.084 387.584h-31.99zm168.749-29.358v-54.272l107.164-52.999-107.164-52.59v-53.927l153.821 83.522v46.183l-153.821 84.083z"/></svg></svg>